<svg width="27" height="22" viewBox="0 0 27 22" fill="none" xmlns="http://www.w3.org/2000/svg">
<path d="M18.7777 20.9999V18.7777C18.7777 17.5989 18.3094 16.4685 17.476 15.635C16.6425 14.8015 15.512 14.3333 14.3333 14.3333H5.44442C4.26569 14.3333 3.13523 14.8015 2.30174 15.635C1.46825 16.4685 1 17.5989 1 18.7777V20.9999" stroke="#FAFAFA" stroke-width="2" stroke-linecap="round" stroke-linejoin="round"/>
<path d="M9.88901 9.88885C12.3436 9.88885 14.3334 7.89901 14.3334 5.44443C14.3334 2.98984 12.3436 1 9.88901 1C7.43442 1 5.44458 2.98984 5.44458 5.44443C5.44458 7.89901 7.43442 9.88885 9.88901 9.88885Z" stroke="#FAFAFA" stroke-width="2" stroke-linecap="round" stroke-linejoin="round"/>
<path d="M25.4446 21V18.7778C25.4439 17.793 25.1162 16.8364 24.5128 16.0581C23.9095 15.2798 23.0648 14.724 22.1113 14.4778" stroke="#FAFAFA" stroke-width="2" stroke-linecap="round" stroke-linejoin="round"/>
<path d="M17.6665 1.14453C18.6225 1.38931 19.4699 1.94531 20.075 2.72487C20.6801 3.50443 21.0085 4.46322 21.0085 5.45007C21.0085 6.43692 20.6801 7.3957 20.075 8.17527C19.4699 8.95483 18.6225 9.51083 17.6665 9.7556" stroke="#FAFAFA" stroke-width="2" stroke-linecap="round" stroke-linejoin="round"/>
</svg>
